<!-- <svg id="visual" viewBox="0 0 960 540" width="960" height="540" xmlns="http://www.w3.org/2000/svg" xmlns:xlink="http://www.w3.org/1999/xlink" version="1.1"><path d="M0 104L87 158L175 125L262 131L349 163L436 163L524 168L611 174L698 136L785 104L873 125L960 147L960 0L873 0L785 0L698 0L611 0L524 0L436 0L349 0L262 0L175 0L87 0L0 0Z" fill="#003223"></path><path d="M0 185L87 195L175 212L262 217L349 206L436 239L524 233L611 222L698 185L785 147L873 190L960 190L960 145L873 123L785 102L698 134L611 172L524 166L436 161L349 161L262 129L175 123L87 156L0 102Z" fill="#013b2d"></path><path d="M0 228L87 249L175 287L262 309L349 303L436 336L524 298L611 282L698 260L785 255L873 287L960 255L960 188L873 188L785 145L698 183L611 220L524 231L436 237L349 204L262 215L175 210L87 193L0 183Z" fill="#014537"></path><path d="M0 357L87 395L175 347L262 368L349 428L436 449L524 363L611 390L698 352L785 379L873 368L960 401L960 253L873 285L785 253L698 258L611 280L524 296L436 334L349 301L262 307L175 285L87 247L0 226Z" fill="#024f42"></path><path d="M0 541L87 541L175 541L262 541L349 541L436 541L524 541L611 541L698 541L785 541L873 541L960 541L960 399L873 366L785 377L698 350L611 388L524 361L436 447L349 426L262 366L175 345L87 393L0 355Z" fill="#02594e"></path></svg> -->
<!-- <svg xmlns="http://www.w3.org/2000/svg" version="1.1" xmlns:xlink="http://www.w3.org/1999/xlink" xmlns:svgjs="http://svgjs.dev/svgjs" width="1440" height="560" preserveAspectRatio="none" viewBox="0 0 1440 560">
    <g mask="url(&quot;#SvgjsMask1000&quot;)" fill="none">
        <rect width="1440" height="560" x="0" y="0" fill="#0e2a47"></rect>
        <path d="M -222.39262282631103,252 C -126.39,261.2 65.61,330.8 257.607377173689,298 C 449.61,265.2 545.61,50 737.607377173689,88 C 929.61,126 1025.61,478.6 1217.607377173689,488 C 1409.61,497.4 1653.13,157.8 1697.607377173689,135 C 1742.09,112.2 1491.52,326.2 1440,374" stroke="rgba(51, 121, 194, 0.58)" stroke-width="2"></path>
        <path d="M -224.22809268264348,502 C -128.23,449.8 63.77,247.6 255.77190731735652,241 C 447.77,234.4 543.77,461.8 735.7719073173565,469 C 927.77,476.2 1023.77,276.8 1215.7719073173566,277 C 1407.77,277.2 1650.93,483.2 1695.7719073173566,470 C 1740.62,456.8 1491.15,262.8 1440,211" stroke="rgba(51, 121, 194, 0.58)" stroke-width="2"></path>
        <path d="M -775.1353784104298,195 C -679.14,217 -487.14,302.2 -295.1353784104298,305 C -103.14,307.8 -7.14,200.8 184.86462158957022,209 C 376.86,217.2 472.86,339.4 664.8646215895702,346 C 856.86,352.6 989.84,252.2 1144.86462158957,242 C 1299.89,231.8 1380.97,284.4 1440,295" stroke="rgba(51, 121, 194, 0.58)" stroke-width="2"></path>
        <path d="M -630.5589566954172,317 C -534.56,302.4 -342.56,249.8 -150.55895669541727,244 C 41.44,238.2 137.44,316.6 329.44104330458276,288 C 521.44,259.4 617.44,83.8 809.4410433045828,101 C 1001.44,118.2 1163.33,351 1289.4410433045828,374 C 1415.55,397 1409.89,247.6 1440,216" stroke="rgba(51, 121, 194, 0.58)" stroke-width="2"></path>
    </g>
    <defs>
        <mask id="SvgjsMask1000">
            <rect width="1440" height="560" fill="#ffffff"></rect>
        </mask>
    </defs>
</svg> -->
<!-- <svg xmlns="http://www.w3.org/2000/svg" version="1.1" xmlns:xlink="http://www.w3.org/1999/xlink" xmlns:svgjs="http://svgjs.dev/svgjs" width="1440" height="560" preserveAspectRatio="none" viewBox="0 0 1440 560">
    <g mask="url(&quot;#SvgjsMask1006&quot;)" fill="none">
        <path d="M -151.61561021221087,422 C -55.62,381 136.38,206 328.38438978778913,217 C 520.38,228 616.38,467.2 808.3843897877891,477 C 1000.38,486.8 1096.38,289 1288.3843897877891,266 C 1480.38,243 1738.06,370.2 1768.3843897877891,362 C 1798.71,353.8 1505.68,252.4 1440,225" stroke="rgba(185, 185, 185, 0.58)" stroke-width="2"></path>
        <path d="M -911.0096342073136,179 C -815.01,230.8 -623.01,442 -431.00963420731364,438 C -239.01,434 -143.01,161.2 48.99036579268636,159 C 240.99,156.8 336.99,433.4 528.9903657926864,427 C 720.99,420.6 826.79,131.8 1008.9903657926864,127 C 1191.19,122.2 1353.8,347.8 1440,403" stroke="rgba(185, 185, 185, 0.58)" stroke-width="2"></path>
        <path d="M -934.547649637331,139 C -838.55,173.8 -646.55,312 -454.54764963733106,313 C -262.55,314 -166.55,132.2 25.452350362668938,144 C 217.45,155.8 313.45,348.4 505.45235036266894,372 C 697.45,395.6 798.54,268.6 985.452350362669,262 C 1172.36,255.4 1349.09,323.6 1440,339" stroke="rgba(185, 185, 185, 0.58)" stroke-width="2"></path>
        <path d="M -133.34359121600465,139 C -37.34,171.4 154.66,276.4 346.65640878399535,301 C 538.66,325.6 634.66,239.8 826.6564087839954,262 C 1018.66,284.2 1114.66,442.2 1306.6564087839954,412 C 1498.66,381.8 1759.99,124.2 1786.6564087839954,111 C 1813.33,97.8 1509.33,299 1440,346" stroke="rgba(185, 185, 185, 0.58)" stroke-width="2"></path>
    </g>
    <defs>
        <mask id="SvgjsMask1006">
            <rect width="1440" height="560" fill="#ffffff"></rect>
        </mask>
    </defs>
</svg> -->
<!-- <svg xmlns="http://www.w3.org/2000/svg" version="1.1" xmlns:xlink="http://www.w3.org/1999/xlink" xmlns:svgjs="http://svgjs.dev/svgjs" width="1440" height="560" preserveAspectRatio="none" viewBox="0 0 1440 560">
    <g mask="url(&quot;#SvgjsMask1007&quot;)" fill="none">
        <rect width="1440" height="560" x="0" y="0" fill="rgba(0, 0, 0, 0.71)"></rect>
        <path d="M -151.61561021221087,422 C -55.62,381 136.38,206 328.38438978778913,217 C 520.38,228 616.38,467.2 808.3843897877891,477 C 1000.38,486.8 1096.38,289 1288.3843897877891,266 C 1480.38,243 1738.06,370.2 1768.3843897877891,362 C 1798.71,353.8 1505.68,252.4 1440,225" stroke="rgba(185, 185, 185, 0.58)" stroke-width="2"></path>
        <path d="M -911.0096342073136,179 C -815.01,230.8 -623.01,442 -431.00963420731364,438 C -239.01,434 -143.01,161.2 48.99036579268636,159 C 240.99,156.8 336.99,433.4 528.9903657926864,427 C 720.99,420.6 826.79,131.8 1008.9903657926864,127 C 1191.19,122.2 1353.8,347.8 1440,403" stroke="rgba(185, 185, 185, 0.58)" stroke-width="2"></path>
        <path d="M -934.547649637331,139 C -838.55,173.8 -646.55,312 -454.54764963733106,313 C -262.55,314 -166.55,132.2 25.452350362668938,144 C 217.45,155.8 313.45,348.4 505.45235036266894,372 C 697.45,395.6 798.54,268.6 985.452350362669,262 C 1172.36,255.4 1349.09,323.6 1440,339" stroke="rgba(185, 185, 185, 0.58)" stroke-width="2"></path>
        <path d="M -133.34359121600465,139 C -37.34,171.4 154.66,276.4 346.65640878399535,301 C 538.66,325.6 634.66,239.8 826.6564087839954,262 C 1018.66,284.2 1114.66,442.2 1306.6564087839954,412 C 1498.66,381.8 1759.99,124.2 1786.6564087839954,111 C 1813.33,97.8 1509.33,299 1440,346" stroke="rgba(185, 185, 185, 0.58)" stroke-width="2"></path>
    </g>
    <defs>
        <mask id="SvgjsMask1007">
            <rect width="1440" height="560" fill="#ffffff"></rect>
        </mask>
    </defs>
</svg> -->
<!-- <svg xmlns="http://www.w3.org/2000/svg" version="1.1" xmlns:xlink="http://www.w3.org/1999/xlink" xmlns:svgjs="http://svgjs.dev/svgjs" width="1440" height="560" preserveAspectRatio="none" viewBox="0 0 1440 560">
    <g mask="url(&quot;#SvgjsMask1000&quot;)" fill="none">
        <rect width="1440" height="560" x="0" y="0" fill="#0e2a47"></rect>
        <path d="M -955.1582583656555,277 C -859.16,293.8 -667.16,378 -475.15825836565546,361 C -283.16,344 -187.16,198.6 4.841741634344544,192 C 196.84,185.4 292.84,354.2 484.84174163434454,328 C 676.84,301.8 773.81,44.4 964.8417416343445,61 C 1155.87,77.6 1344.97,341 1440,411" stroke="rgba(51, 121, 194, 0.58)" stroke-width="2"></path>
        <path d="M -825.1526024178952,258 C -729.15,297.8 -537.15,489.8 -345.15260241789514,457 C -153.15,424.2 -57.15,87.4 134.84739758210486,94 C 326.85,100.6 422.85,483.2 614.8473975821048,490 C 806.85,496.8 929.82,135 1094.8473975821048,128 C 1259.88,121 1370.97,389.6 1440,455" stroke="rgba(51, 121, 194, 0.58)" stroke-width="2"></path>
        <path d="M -362.2277303507815,448 C -266.23,396.4 -74.23,223 117.77226964921849,190 C 309.77,157 405.77,281.2 597.7722696492185,283 C 789.77,284.8 885.77,187 1077.7722696492185,199 C 1269.77,211 1485.33,356.4 1557.7722696492185,343 C 1630.22,329.6 1463.55,174.2 1440,132" stroke="rgba(51, 121, 194, 0.58)" stroke-width="2"></path>
        <path d="M -445.6718209827715,371 C -349.67,315.8 -157.67,112 34.32817901722846,95 C 226.33,78 322.33,273 514.3281790172284,286 C 706.33,299 802.33,148.6 994.3281790172284,160 C 1186.33,171.4 1385.19,351.6 1474.3281790172284,343 C 1563.46,334.4 1446.87,162.2 1440,117" stroke="rgba(51, 121, 194, 0.58)" stroke-width="2"></path>
    </g>
    <defs>
        <mask id="SvgjsMask1000">
            <rect width="1440" height="560" fill="#ffffff"></rect>
        </mask>
    </defs>
</svg> -->
<svg xmlns="http://www.w3.org/2000/svg" version="1.1" xmlns:xlink="http://www.w3.org/1999/xlink" xmlns:svgjs="http://svgjs.dev/svgjs" width="1440" height="560" preserveAspectRatio="none" viewBox="0 0 1440 560">
    <g mask="url(&quot;#SvgjsMask1000&quot;)" fill="none">
        <rect width="1440" height="560" x="0" y="0" fill="#000000"></rect>
        <path d="M -955.1582583656555,277 C -859.16,293.8 -667.16,378 -475.15825836565546,361 C -283.16,344 -187.16,198.6 4.841741634344544,192 C 196.84,185.4 292.84,354.2 484.84174163434454,328 C 676.84,301.8 773.81,44.4 964.8417416343445,61 C 1155.87,77.6 1344.97,341 1440,411" stroke="rgba(51, 121, 194, 0.58)" stroke-width="2"></path>
        <path d="M -825.1526024178952,258 C -729.15,297.8 -537.15,489.8 -345.15260241789514,457 C -153.15,424.2 -57.15,87.4 134.84739758210486,94 C 326.85,100.6 422.85,483.2 614.8473975821048,490 C 806.85,496.8 929.82,135 1094.8473975821048,128 C 1259.88,121 1370.97,389.6 1440,455" stroke="rgba(51, 121, 194, 0.58)" stroke-width="2"></path>
        <path d="M -362.2277303507815,448 C -266.23,396.4 -74.23,223 117.77226964921849,190 C 309.77,157 405.77,281.2 597.7722696492185,283 C 789.77,284.8 885.77,187 1077.7722696492185,199 C 1269.77,211 1485.33,356.4 1557.7722696492185,343 C 1630.22,329.6 1463.55,174.2 1440,132" stroke="rgba(51, 121, 194, 0.58)" stroke-width="2"></path>
        <path d="M -445.6718209827715,371 C -349.67,315.8 -157.67,112 34.32817901722846,95 C 226.33,78 322.33,273 514.3281790172284,286 C 706.33,299 802.33,148.6 994.3281790172284,160 C 1186.33,171.4 1385.19,351.6 1474.3281790172284,343 C 1563.46,334.4 1446.87,162.2 1440,117" stroke="rgba(51, 121, 194, 0.58)" stroke-width="2"></path>
    </g>
    <defs>
        <mask id="SvgjsMask1000">
            <rect width="1440" height="560" fill="#ffffff"></rect>
        </mask>
    </defs>
</svg>
