<!-- <svg id="visual" viewBox="0 0 960 540" width="960" height="540" xmlns="http://www.w3.org/2000/svg" xmlns:xlink="http://www.w3.org/1999/xlink" version="1.1"><path d="M0 104L87 158L175 125L262 131L349 163L436 163L524 168L611 174L698 136L785 104L873 125L960 147L960 0L873 0L785 0L698 0L611 0L524 0L436 0L349 0L262 0L175 0L87 0L0 0Z" fill="#003223"></path><path d="M0 185L87 195L175 212L262 217L349 206L436 239L524 233L611 222L698 185L785 147L873 190L960 190L960 145L873 123L785 102L698 134L611 172L524 166L436 161L349 161L262 129L175 123L87 156L0 102Z" fill="#013b2d"></path><path d="M0 228L87 249L175 287L262 309L349 303L436 336L524 298L611 282L698 260L785 255L873 287L960 255L960 188L873 188L785 145L698 183L611 220L524 231L436 237L349 204L262 215L175 210L87 193L0 183Z" fill="#014537"></path><path d="M0 357L87 395L175 347L262 368L349 428L436 449L524 363L611 390L698 352L785 379L873 368L960 401L960 253L873 285L785 253L698 258L611 280L524 296L436 334L349 301L262 307L175 285L87 247L0 226Z" fill="#024f42"></path><path d="M0 541L87 541L175 541L262 541L349 541L436 541L524 541L611 541L698 541L785 541L873 541L960 541L960 399L873 366L785 377L698 350L611 388L524 361L436 447L349 426L262 366L175 345L87 393L0 355Z" fill="#02594e"></path></svg> -->
<svg xmlns="http://www.w3.org/2000/svg" version="1.1" xmlns:xlink="http://www.w3.org/1999/xlink" xmlns:svgjs="http://svgjs.dev/svgjs" width="1440" height="560" preserveAspectRatio="none" viewBox="0 0 1440 560">
    <g mask="url(&quot;#SvgjsMask1000&quot;)" fill="none">
        <rect width="1440" height="560" x="0" y="0" fill="#0e2a47"></rect>
        <path d="M -222.39262282631103,252 C -126.39,261.2 65.61,330.8 257.607377173689,298 C 449.61,265.2 545.61,50 737.607377173689,88 C 929.61,126 1025.61,478.6 1217.607377173689,488 C 1409.61,497.4 1653.13,157.8 1697.607377173689,135 C 1742.09,112.2 1491.52,326.2 1440,374" stroke="rgba(51, 121, 194, 0.58)" stroke-width="2"></path>
        <path d="M -224.22809268264348,502 C -128.23,449.8 63.77,247.6 255.77190731735652,241 C 447.77,234.4 543.77,461.8 735.7719073173565,469 C 927.77,476.2 1023.77,276.8 1215.7719073173566,277 C 1407.77,277.2 1650.93,483.2 1695.7719073173566,470 C 1740.62,456.8 1491.15,262.8 1440,211" stroke="rgba(51, 121, 194, 0.58)" stroke-width="2"></path>
        <path d="M -775.1353784104298,195 C -679.14,217 -487.14,302.2 -295.1353784104298,305 C -103.14,307.8 -7.14,200.8 184.86462158957022,209 C 376.86,217.2 472.86,339.4 664.8646215895702,346 C 856.86,352.6 989.84,252.2 1144.86462158957,242 C 1299.89,231.8 1380.97,284.4 1440,295" stroke="rgba(51, 121, 194, 0.58)" stroke-width="2"></path>
        <path d="M -630.5589566954172,317 C -534.56,302.4 -342.56,249.8 -150.55895669541727,244 C 41.44,238.2 137.44,316.6 329.44104330458276,288 C 521.44,259.4 617.44,83.8 809.4410433045828,101 C 1001.44,118.2 1163.33,351 1289.4410433045828,374 C 1415.55,397 1409.89,247.6 1440,216" stroke="rgba(51, 121, 194, 0.58)" stroke-width="2"></path>
    </g>
    <defs>
        <mask id="SvgjsMask1000">
            <rect width="1440" height="560" fill="#ffffff"></rect>
        </mask>
    </defs>
</svg>