<!-- <svg id="visual" viewBox="0 0 960 540" width="960" height="540" xmlns="http://www.w3.org/2000/svg" xmlns:xlink="http://www.w3.org/1999/xlink" version="1.1"><path d="M0 104L87 158L175 125L262 131L349 163L436 163L524 168L611 174L698 136L785 104L873 125L960 147L960 0L873 0L785 0L698 0L611 0L524 0L436 0L349 0L262 0L175 0L87 0L0 0Z" fill="#003223"></path><path d="M0 185L87 195L175 212L262 217L349 206L436 239L524 233L611 222L698 185L785 147L873 190L960 190L960 145L873 123L785 102L698 134L611 172L524 166L436 161L349 161L262 129L175 123L87 156L0 102Z" fill="#013b2d"></path><path d="M0 228L87 249L175 287L262 309L349 303L436 336L524 298L611 282L698 260L785 255L873 287L960 255L960 188L873 188L785 145L698 183L611 220L524 231L436 237L349 204L262 215L175 210L87 193L0 183Z" fill="#014537"></path><path d="M0 357L87 395L175 347L262 368L349 428L436 449L524 363L611 390L698 352L785 379L873 368L960 401L960 253L873 285L785 253L698 258L611 280L524 296L436 334L349 301L262 307L175 285L87 247L0 226Z" fill="#024f42"></path><path d="M0 541L87 541L175 541L262 541L349 541L436 541L524 541L611 541L698 541L785 541L873 541L960 541L960 399L873 366L785 377L698 350L611 388L524 361L436 447L349 426L262 366L175 345L87 393L0 355Z" fill="#02594e"></path></svg> -->
<svg xmlns="http://www.w3.org/2000/svg" version="1.1" xmlns:xlink="http://www.w3.org/1999/xlink" xmlns:svgjs="http://svgjs.dev/svgjs" width="1440" height="560" preserveAspectRatio="none" viewBox="0 0 1440 560">
    <g mask="url(&quot;#SvgjsMask1035&quot;)" fill="none">
        <path d="M717.098,224.034C745.989,224.612,774.504,211.266,788.463,185.964C802.026,161.381,795.662,131.818,781.278,107.707C767.302,84.279,744.375,66.766,717.098,66.338C689.114,65.899,663.185,81.318,649.33,105.635C635.609,129.717,636.744,159.151,650.512,183.205C664.374,207.423,689.199,223.476,717.098,224.034" fill="rgba(28, 83, 142, 0.4)" class="triangle-float3"></path>
        <path d="M1447.665,302.897C1502.467,301.66,1535.81,248.205,1561.08,199.561C1583.86,155.71,1596.152,105.376,1572.934,61.756C1548.401,15.667,1499.823,-15.881,1447.665,-13.512C1398.712,-11.289,1364.659,29.578,1340.666,72.305C1317.313,113.893,1304.948,161.622,1325.024,204.887C1348.632,255.765,1391.591,304.162,1447.665,302.897" fill="rgba(28, 83, 142, 0.4)" class="triangle-float1"></path>
        <path d="M60.025,215.075C106.19,218.057,154.216,198.626,176.218,157.932C197.431,118.696,180.109,73.019,157.669,34.472C135.413,-3.758,104.232,-40.065,60.025,-41.661C13.533,-43.34,-29.887,-14.683,-50.65,26.949C-69.598,64.941,-54.312,107.839,-32.785,144.431C-11.656,180.347,18.442,212.389,60.025,215.075" fill="rgba(28, 83, 142, 0.4)" class="triangle-float1"></path>
        <path d="M99.498,583.282C137.957,582.862,173.25,561.303,191.562,527.481C209.063,495.157,202.474,457.289,185.311,424.784C166.661,389.461,139.426,354.227,99.498,353.114C58.195,351.962,24.662,383.428,4.974,419.755C-13.714,454.237,-15.743,495.574,3.885,529.53C23.496,563.457,60.313,583.71,99.498,583.282" fill="rgba(28, 83, 142, 0.4)" class="triangle-float2"></path>
        <path d="M1030.645,240.516C1078.623,237.415,1122.607,215.65,1148.146,174.916C1175.512,131.27,1184.898,77.405,1161.778,31.368C1136.239,-19.486,1087.541,-57.921,1030.645,-59.052C971.99,-60.218,919.819,-24.649,890.158,25.967C860.14,77.193,850.99,142.351,883.515,192.023C913.834,238.326,975.414,244.086,1030.645,240.516" fill="rgba(28, 83, 142, 0.4)" class="triangle-float3"></path>
        <path d="M1313.801,697.282C1357.305,698.497,1401.91,684.471,1425.025,647.596C1449.47,608.6,1451.155,557.119,1425.699,518.776C1402.302,483.534,1356.095,479.24,1313.801,480.064C1273.416,480.851,1230.609,488.736,1209.208,522.994C1186.734,558.969,1191.016,605.298,1212.843,641.669C1234.032,676.978,1272.638,696.132,1313.801,697.282" fill="rgba(28, 83, 142, 0.4)" class="triangle-float3"></path>
        <path d="M584.356,245.89C606.381,247.166,630.787,242.861,642.059,223.896C653.499,204.647,645.543,181.112,634.4,161.689C623.189,142.147,606.878,123.924,584.356,123.314C560.982,122.681,539.834,137.925,529.39,158.846C519.898,177.86,525.83,199.852,537.177,217.821C547.649,234.404,564.776,244.756,584.356,245.89" fill="rgba(28, 83, 142, 0.4)" class="triangle-float2"></path>
    </g>
    <defs>
        <mask id="SvgjsMask1035">
            <rect width="1440" height="560" fill="#ffffff"></rect>
        </mask>
        <style>
            @keyframes float1 {
                    0%{transform: translate(0, 0)}
                    50%{transform: translate(-10px, 0)}
                    100%{transform: translate(0, 0)}
                }

                .triangle-float1 {
                    animation: float1 5s infinite;
                }

                @keyframes float2 {
                    0%{transform: translate(0, 0)}
                    50%{transform: translate(-5px, -5px)}
                    100%{transform: translate(0, 0)}
                }

                .triangle-float2 {
                    animation: float2 4s infinite;
                }

                @keyframes float3 {
                    0%{transform: translate(0, 0)}
                    50%{transform: translate(0, -10px)}
                    100%{transform: translate(0, 0)}
                }

                .triangle-float3 {
                    animation: float3 6s infinite;
                }
        </style>
    </defs>
</svg>